<svg width="300" height="261" viewBox="0 0 300 261" fill="none" xmlns="http://www.w3.org/2000/svg">
<circle cx="150" cy="110" r="110" fill="white"/>
<path d="M246 111C246 167.333 199.885 213 143 213C86.1147 213 40 167.333 40 111C40 54.667 86.1147 9 143 9C199.885 9 246 54.667 246 111Z" fill="#303E4F"/>
<path d="M131.996 104.96L124.636 108.96L124.556 109.12L131.116 113.12L129.116 132.64L119.276 138H88.9563L94.7963 82H125.116L133.836 87.36L131.996 104.96ZM102.636 113.84L101.116 128.4H118.316L119.836 113.84H102.636ZM104.956 91.6L103.676 104.24H120.876L122.156 91.6H104.956ZM189.279 138L193.119 101.04H192.959L176.479 138H165.839L157.039 100.56H156.879L152.959 138H142.159L147.999 82H162.879L172.639 123.2H172.799L191.119 82H205.919L200.079 138H189.279Z" fill="white"/>
<rect x="82" y="92" width="125" height="9" fill="#303E4F"/>
<path d="M2.13281 255V237.938H7.98047C9.91016 237.938 11.3789 238.324 12.3867 239.098C13.3945 239.871 13.8984 241.023 13.8984 242.555C13.8984 243.336 13.6875 244.039 13.2656 244.664C12.8438 245.289 12.2266 245.773 11.4141 246.117C12.3359 246.367 13.0469 246.84 13.5469 247.535C14.0547 248.223 14.3086 249.051 14.3086 250.02C14.3086 251.621 13.793 252.852 12.7617 253.711C11.7383 254.57 10.2695 255 8.35547 255H2.13281ZM5.09766 247.301V252.633H8.39062C9.32031 252.633 10.0469 252.402 10.5703 251.941C11.0938 251.48 11.3555 250.84 11.3555 250.02C11.3555 248.246 10.4492 247.34 8.63672 247.301H5.09766ZM5.09766 245.121H8.00391C8.92578 245.121 9.64453 244.914 10.1602 244.5C10.6836 244.078 10.9453 243.484 10.9453 242.719C10.9453 241.875 10.7031 241.266 10.2188 240.891C9.74219 240.516 8.99609 240.328 7.98047 240.328H5.09766V245.121ZM24.5742 255C24.4492 254.758 24.3398 254.363 24.2461 253.816C23.3398 254.762 22.2305 255.234 20.918 255.234C19.6445 255.234 18.6055 254.871 17.8008 254.145C16.9961 253.418 16.5938 252.52 16.5938 251.449C16.5938 250.098 17.0938 249.062 18.0938 248.344C19.1016 247.617 20.5391 247.254 22.4062 247.254H24.1523V246.422C24.1523 245.766 23.9688 245.242 23.6016 244.852C23.2344 244.453 22.6758 244.254 21.9258 244.254C21.2773 244.254 20.7461 244.418 20.332 244.746C19.918 245.066 19.7109 245.477 19.7109 245.977H16.8633C16.8633 245.281 17.0938 244.633 17.5547 244.031C18.0156 243.422 18.6406 242.945 19.4297 242.602C20.2266 242.258 21.1133 242.086 22.0898 242.086C23.5742 242.086 24.7578 242.461 25.6406 243.211C26.5234 243.953 26.9766 245 27 246.352V252.07C27 253.211 27.1602 254.121 27.4805 254.801V255H24.5742ZM21.4453 252.949C22.0078 252.949 22.5352 252.812 23.0273 252.539C23.5273 252.266 23.9023 251.898 24.1523 251.438V249.047H22.6172C21.5625 249.047 20.7695 249.23 20.2383 249.598C19.707 249.965 19.4414 250.484 19.4414 251.156C19.4414 251.703 19.6211 252.141 19.9805 252.469C20.3477 252.789 20.8359 252.949 21.4453 252.949ZM36.6211 244.922C36.2461 244.859 35.8594 244.828 35.4609 244.828C34.1562 244.828 33.2773 245.328 32.8242 246.328V255H29.9766V242.32H32.6953L32.7656 243.738C33.4531 242.637 34.4062 242.086 35.625 242.086C36.0312 242.086 36.3672 242.141 36.6328 242.25L36.6211 244.922ZM41.0625 242.32L41.1445 243.785C42.082 242.652 43.3125 242.086 44.8359 242.086C47.4766 242.086 48.8203 243.598 48.8672 246.621V255H46.0195V246.785C46.0195 245.98 45.8438 245.387 45.4922 245.004C45.1484 244.613 44.582 244.418 43.793 244.418C42.6445 244.418 41.7891 244.938 41.2266 245.977V255H38.3789V242.32H41.0625ZM62.918 251.074L64.9336 242.32H67.7109L64.2539 255H61.9102L59.1914 246.293L56.5195 255H54.1758L50.707 242.32H53.4844L55.5352 250.98L58.1367 242.32H60.2812L62.918 251.074ZM77.1914 255C77.0664 254.758 76.957 254.363 76.8633 253.816C75.957 254.762 74.8477 255.234 73.5352 255.234C72.2617 255.234 71.2227 254.871 70.418 254.145C69.6133 253.418 69.2109 252.52 69.2109 251.449C69.2109 250.098 69.7109 249.062 70.7109 248.344C71.7188 247.617 73.1562 247.254 75.0234 247.254H76.7695V246.422C76.7695 245.766 76.5859 245.242 76.2188 244.852C75.8516 244.453 75.293 244.254 74.543 244.254C73.8945 244.254 73.3633 244.418 72.9492 244.746C72.5352 245.066 72.3281 245.477 72.3281 245.977H69.4805C69.4805 245.281 69.7109 244.633 70.1719 244.031C70.6328 243.422 71.2578 242.945 72.0469 242.602C72.8438 242.258 73.7305 242.086 74.707 242.086C76.1914 242.086 77.375 242.461 78.2578 243.211C79.1406 243.953 79.5938 245 79.6172 246.352V252.07C79.6172 253.211 79.7773 254.121 80.0977 254.801V255H77.1914ZM74.0625 252.949C74.625 252.949 75.1523 252.812 75.6445 252.539C76.1445 252.266 76.5195 251.898 76.7695 251.438V249.047H75.2344C74.1797 249.047 73.3867 249.23 72.8555 249.598C72.3242 249.965 72.0586 250.484 72.0586 251.156C72.0586 251.703 72.2383 252.141 72.5977 252.469C72.9648 252.789 73.4531 252.949 74.0625 252.949ZM85.6289 255H82.7812V237H85.6289V255ZM98.8359 237.938L103.758 251.016L108.668 237.938H112.5V255H109.547V249.375L109.84 241.852L104.801 255H102.68L97.6523 241.863L97.9453 249.375V255H94.9922V237.938H98.8359ZM118.77 255H115.922V242.32H118.77V255ZM115.746 239.027C115.746 238.59 115.883 238.227 116.156 237.938C116.438 237.648 116.836 237.504 117.352 237.504C117.867 237.504 118.266 237.648 118.547 237.938C118.828 238.227 118.969 238.59 118.969 239.027C118.969 239.457 118.828 239.816 118.547 240.105C118.266 240.387 117.867 240.527 117.352 240.527C116.836 240.527 116.438 240.387 116.156 240.105C115.883 239.816 115.746 239.457 115.746 239.027ZM127.09 252.961C127.801 252.961 128.391 252.754 128.859 252.34C129.328 251.926 129.578 251.414 129.609 250.805H132.293C132.262 251.594 132.016 252.332 131.555 253.02C131.094 253.699 130.469 254.238 129.68 254.637C128.891 255.035 128.039 255.234 127.125 255.234C125.352 255.234 123.945 254.66 122.906 253.512C121.867 252.363 121.348 250.777 121.348 248.754V248.461C121.348 246.531 121.863 244.988 122.895 243.832C123.926 242.668 125.332 242.086 127.113 242.086C128.621 242.086 129.848 242.527 130.793 243.41C131.746 244.285 132.246 245.438 132.293 246.867H129.609C129.578 246.141 129.328 245.543 128.859 245.074C128.398 244.605 127.809 244.371 127.09 244.371C126.168 244.371 125.457 244.707 124.957 245.379C124.457 246.043 124.203 247.055 124.195 248.414V248.871C124.195 250.246 124.441 251.273 124.934 251.953C125.434 252.625 126.152 252.961 127.09 252.961ZM142.02 255C141.895 254.758 141.785 254.363 141.691 253.816C140.785 254.762 139.676 255.234 138.363 255.234C137.09 255.234 136.051 254.871 135.246 254.145C134.441 253.418 134.039 252.52 134.039 251.449C134.039 250.098 134.539 249.062 135.539 248.344C136.547 247.617 137.984 247.254 139.852 247.254H141.598V246.422C141.598 245.766 141.414 245.242 141.047 244.852C140.68 244.453 140.121 244.254 139.371 244.254C138.723 244.254 138.191 244.418 137.777 244.746C137.363 245.066 137.156 245.477 137.156 245.977H134.309C134.309 245.281 134.539 244.633 135 244.031C135.461 243.422 136.086 242.945 136.875 242.602C137.672 242.258 138.559 242.086 139.535 242.086C141.02 242.086 142.203 242.461 143.086 243.211C143.969 243.953 144.422 245 144.445 246.352V252.07C144.445 253.211 144.605 254.121 144.926 254.801V255H142.02ZM138.891 252.949C139.453 252.949 139.98 252.812 140.473 252.539C140.973 252.266 141.348 251.898 141.598 251.438V249.047H140.062C139.008 249.047 138.215 249.23 137.684 249.598C137.152 249.965 136.887 250.484 136.887 251.156C136.887 251.703 137.066 252.141 137.426 252.469C137.793 252.789 138.281 252.949 138.891 252.949ZM150.07 242.32L150.152 243.785C151.09 242.652 152.32 242.086 153.844 242.086C156.484 242.086 157.828 243.598 157.875 246.621V255H155.027V246.785C155.027 245.98 154.852 245.387 154.5 245.004C154.156 244.613 153.59 244.418 152.801 244.418C151.652 244.418 150.797 244.938 150.234 245.977V255H147.387V242.32H150.07ZM163.816 255H160.969V242.32H163.816V255ZM160.793 239.027C160.793 238.59 160.93 238.227 161.203 237.938C161.484 237.648 161.883 237.504 162.398 237.504C162.914 237.504 163.312 237.648 163.594 237.938C163.875 238.227 164.016 238.59 164.016 239.027C164.016 239.457 163.875 239.816 163.594 240.105C163.312 240.387 162.914 240.527 162.398 240.527C161.883 240.527 161.484 240.387 161.203 240.105C160.93 239.816 160.793 239.457 160.793 239.027ZM170.496 239.238V242.32H172.734V244.43H170.496V251.508C170.496 251.992 170.59 252.344 170.777 252.562C170.973 252.773 171.316 252.879 171.809 252.879C172.137 252.879 172.469 252.84 172.805 252.762V254.965C172.156 255.145 171.531 255.234 170.93 255.234C168.742 255.234 167.648 254.027 167.648 251.613V244.43H165.562V242.32H167.648V239.238H170.496ZM180.504 255.234C178.699 255.234 177.234 254.668 176.109 253.535C174.992 252.395 174.434 250.879 174.434 248.988V248.637C174.434 247.371 174.676 246.242 175.16 245.25C175.652 244.25 176.34 243.473 177.223 242.918C178.105 242.363 179.09 242.086 180.176 242.086C181.902 242.086 183.234 242.637 184.172 243.738C185.117 244.84 185.59 246.398 185.59 248.414V249.562H177.305C177.391 250.609 177.738 251.438 178.348 252.047C178.965 252.656 179.738 252.961 180.668 252.961C181.973 252.961 183.035 252.434 183.855 251.379L185.391 252.844C184.883 253.602 184.203 254.191 183.352 254.613C182.508 255.027 181.559 255.234 180.504 255.234ZM180.164 244.371C179.383 244.371 178.75 244.645 178.266 245.191C177.789 245.738 177.484 246.5 177.352 247.477H182.777V247.266C182.715 246.312 182.461 245.594 182.016 245.109C181.57 244.617 180.953 244.371 180.164 244.371ZM197.191 255H194.238V237.938H197.191V255ZM203.203 242.32L203.285 243.785C204.223 242.652 205.453 242.086 206.977 242.086C209.617 242.086 210.961 243.598 211.008 246.621V255H208.16V246.785C208.16 245.98 207.984 245.387 207.633 245.004C207.289 244.613 206.723 244.418 205.934 244.418C204.785 244.418 203.93 244.938 203.367 245.977V255H200.52V242.32H203.203ZM213.387 248.566C213.387 246.613 213.84 245.047 214.746 243.867C215.652 242.68 216.867 242.086 218.391 242.086C219.734 242.086 220.82 242.555 221.648 243.492V237H224.496V255H221.918L221.777 253.688C220.926 254.719 219.789 255.234 218.367 255.234C216.883 255.234 215.68 254.637 214.758 253.441C213.844 252.246 213.387 250.621 213.387 248.566ZM216.234 248.812C216.234 250.102 216.48 251.109 216.973 251.836C217.473 252.555 218.18 252.914 219.094 252.914C220.258 252.914 221.109 252.395 221.648 251.355V245.941C221.125 244.926 220.281 244.418 219.117 244.418C218.195 244.418 217.484 244.785 216.984 245.52C216.484 246.246 216.234 247.344 216.234 248.812ZM235.148 253.758C234.312 254.742 233.125 255.234 231.586 255.234C230.211 255.234 229.168 254.832 228.457 254.027C227.754 253.223 227.402 252.059 227.402 250.535V242.32H230.25V250.5C230.25 252.109 230.918 252.914 232.254 252.914C233.637 252.914 234.57 252.418 235.055 251.426V242.32H237.902V255H235.219L235.148 253.758ZM247.91 251.555C247.91 251.047 247.699 250.66 247.277 250.395C246.863 250.129 246.172 249.895 245.203 249.691C244.234 249.488 243.426 249.23 242.777 248.918C241.355 248.23 240.645 247.234 240.645 245.93C240.645 244.836 241.105 243.922 242.027 243.188C242.949 242.453 244.121 242.086 245.543 242.086C247.059 242.086 248.281 242.461 249.211 243.211C250.148 243.961 250.617 244.934 250.617 246.129H247.77C247.77 245.582 247.566 245.129 247.16 244.77C246.754 244.402 246.215 244.219 245.543 244.219C244.918 244.219 244.406 244.363 244.008 244.652C243.617 244.941 243.422 245.328 243.422 245.812C243.422 246.25 243.605 246.59 243.973 246.832C244.34 247.074 245.082 247.32 246.199 247.57C247.316 247.812 248.191 248.105 248.824 248.449C249.465 248.785 249.938 249.191 250.242 249.668C250.555 250.145 250.711 250.723 250.711 251.402C250.711 252.543 250.238 253.469 249.293 254.18C248.348 254.883 247.109 255.234 245.578 255.234C244.539 255.234 243.613 255.047 242.801 254.672C241.988 254.297 241.355 253.781 240.902 253.125C240.449 252.469 240.223 251.762 240.223 251.004H242.988C243.027 251.676 243.281 252.195 243.75 252.562C244.219 252.922 244.84 253.102 245.613 253.102C246.363 253.102 246.934 252.961 247.324 252.68C247.715 252.391 247.91 252.016 247.91 251.555ZM256.77 239.238V242.32H259.008V244.43H256.77V251.508C256.77 251.992 256.863 252.344 257.051 252.562C257.246 252.773 257.59 252.879 258.082 252.879C258.41 252.879 258.742 252.84 259.078 252.762V254.965C258.43 255.145 257.805 255.234 257.203 255.234C255.016 255.234 253.922 254.027 253.922 251.613V244.43H251.836V242.32H253.922V239.238H256.77ZM267.832 244.922C267.457 244.859 267.07 244.828 266.672 244.828C265.367 244.828 264.488 245.328 264.035 246.328V255H261.188V242.32H263.906L263.977 243.738C264.664 242.637 265.617 242.086 266.836 242.086C267.242 242.086 267.578 242.141 267.844 242.25L267.832 244.922ZM272.66 255H269.812V242.32H272.66V255ZM269.637 239.027C269.637 238.59 269.773 238.227 270.047 237.938C270.328 237.648 270.727 237.504 271.242 237.504C271.758 237.504 272.156 237.648 272.438 237.938C272.719 238.227 272.859 238.59 272.859 239.027C272.859 239.457 272.719 239.816 272.438 240.105C272.156 240.387 271.758 240.527 271.242 240.527C270.727 240.527 270.328 240.387 270.047 240.105C269.773 239.816 269.637 239.457 269.637 239.027ZM281.355 255.234C279.551 255.234 278.086 254.668 276.961 253.535C275.844 252.395 275.285 250.879 275.285 248.988V248.637C275.285 247.371 275.527 246.242 276.012 245.25C276.504 244.25 277.191 243.473 278.074 242.918C278.957 242.363 279.941 242.086 281.027 242.086C282.754 242.086 284.086 242.637 285.023 243.738C285.969 244.84 286.441 246.398 286.441 248.414V249.562H278.156C278.242 250.609 278.59 251.438 279.199 252.047C279.816 252.656 280.59 252.961 281.52 252.961C282.824 252.961 283.887 252.434 284.707 251.379L286.242 252.844C285.734 253.602 285.055 254.191 284.203 254.613C283.359 255.027 282.41 255.234 281.355 255.234ZM281.016 244.371C280.234 244.371 279.602 244.645 279.117 245.191C278.641 245.738 278.336 246.5 278.203 247.477H283.629V247.266C283.566 246.312 283.312 245.594 282.867 245.109C282.422 244.617 281.805 244.371 281.016 244.371ZM295.77 251.555C295.77 251.047 295.559 250.66 295.137 250.395C294.723 250.129 294.031 249.895 293.062 249.691C292.094 249.488 291.285 249.23 290.637 248.918C289.215 248.23 288.504 247.234 288.504 245.93C288.504 244.836 288.965 243.922 289.887 243.188C290.809 242.453 291.98 242.086 293.402 242.086C294.918 242.086 296.141 242.461 297.07 243.211C298.008 243.961 298.477 244.934 298.477 246.129H295.629C295.629 245.582 295.426 245.129 295.02 244.77C294.613 244.402 294.074 244.219 293.402 244.219C292.777 244.219 292.266 244.363 291.867 244.652C291.477 244.941 291.281 245.328 291.281 245.812C291.281 246.25 291.465 246.59 291.832 246.832C292.199 247.074 292.941 247.32 294.059 247.57C295.176 247.812 296.051 248.105 296.684 248.449C297.324 248.785 297.797 249.191 298.102 249.668C298.414 250.145 298.57 250.723 298.57 251.402C298.57 252.543 298.098 253.469 297.152 254.18C296.207 254.883 294.969 255.234 293.438 255.234C292.398 255.234 291.473 255.047 290.66 254.672C289.848 254.297 289.215 253.781 288.762 253.125C288.309 252.469 288.082 251.762 288.082 251.004H290.848C290.887 251.676 291.141 252.195 291.609 252.562C292.078 252.922 292.699 253.102 293.473 253.102C294.223 253.102 294.793 252.961 295.184 252.68C295.574 252.391 295.77 252.016 295.77 251.555Z" fill="white"/>
</svg>
